<svg version="1.1" xmlns="http://www.w3.org/2000/svg" xmlns:xlink="http://www.w3.org/1999/xlink" x="0px" y="0px" viewBox="0 0 50 100" style="enable-background:new 0 0 50 100;" xml:space="preserve">
<defs>
    <filter id="f3" x="-50%" y="-50%" width="200%" height="200%">
      <feOffset result="offOut" in="SourceAlpha" dx="0" dy="0" />
      <feGaussianBlur result="blurOut" in="offOut" stdDeviation="1.5" />
      <feBlend in="SourceGraphic" in2="blurOut" mode="normal" />
    </filter>
  </defs>
<path d="M45.4,49c-0.1-0.4-0.1-0.9-0.3-1.4c-0.2-0.5-0.2-1.1-0.3-1.8c-0.2-0.7-0.3-1.4-0.5-2.2c-0.6-2.3-1.4-5-2.5-8.2
	c-1.4-3.7-3.2-7.7-5.6-12.1c-0.7-1.2-1.5-2.5-2.3-3.8c-1.6-2.6-3.6-5.1-5.5-7.7c-1-1.3-2.1-2.6-3.3-3.9C6,28.7,4.4,50.4,4.4,50.4V92
	h18.1H25h2.5h18.1V50.4C45.6,50.4,45.6,49.9,45.4,49z M22.5,87.8H8.7V50.7C8.9,49,11,31.9,25,14.6v73.2H22.5z" fill="rgb(110,204,57)" filter="url(#f3)"/>
<path fill="#fff" d="M22.5,87.8H8.7V50.7C8.9,49,11,31.9,25,14.6v73.2H22.5z"/>
</svg>